/* XPM */
static char * pgn2web_xpm[] = {
"32 32 137 2",
"  	c None",
". 	c #0C8C0C",
"+ 	c #0F910F",
"@ 	c #021F27",
"# 	c #0D0D8F",
"$ 	c #0F0F91",
"% 	c #006A00",
"& 	c #00C600",
"* 	c #00FF00",
"= 	c #003949",
"- 	c #0000FF",
"; 	c #0000CF",
"> 	c #000075",
", 	c #00A800",
"' 	c #001C67",
") 	c #0000B8",
"! 	c #00BE00",
"~ 	c #00DD00",
"{ 	c #0002A2",
"] 	c #00028A",
"^ 	c #00A200",
"/ 	c #00900B",
"( 	c #0000EC",
"_ 	c #00443D",
": 	c #00B300",
"< 	c #006300",
"[ 	c #00FB00",
"} 	c #00F900",
"| 	c #002266",
"1 	c #0000CC",
"2 	c #00B201",
"3 	c #007500",
"4 	c #00BB00",
"5 	c #008D0F",
"6 	c #0000E2",
"7 	c #002462",
"8 	c #00CE00",
"9 	c #00F800",
"0 	c #00D100",
"a 	c #0009A1",
"b 	c #0000EE",
"c 	c #00890A",
"d 	c #007A00",
"e 	c #00E300",
"f 	c #002276",
"g 	c #0005A1",
"h 	c #00E000",
"i 	c #008300",
"j 	c #008E00",
"k 	c #002469",
"l 	c #0000FE",
"m 	c #00354D",
"n 	c #008200",
"o 	c #007C00",
"p 	c #00EF00",
"q 	c #003155",
"r 	c #0000FB",
"s 	c #0000F9",
"t 	c #007A0E",
"u 	c #E7E7E7",
"v 	c #FFFFFF",
"w 	c #DBDBDB",
"x 	c #000000",
"y 	c #006800",
"z 	c #00F300",
"A 	c #003A52",
"B 	c #0000DD",
"C 	c #00A400",
"D 	c #004800",
"E 	c #006824",
"F 	c #0000F2",
"G 	c #0000CB",
"H 	c #00B600",
"I 	c #000E00",
"J 	c #00F600",
"K 	c #00DB00",
"L 	c #0002A3",
"M 	c #00A700",
"N 	c #009500",
"O 	c #008F04",
"P 	c #00C500",
"Q 	c #002D00",
"R 	c #008700",
"S 	c #0000F5",
"T 	c #003B4D",
"U 	c #00FE00",
"V 	c #001B00",
"W 	c #0000DF",
"X 	c #0000E1",
"Y 	c #007A12",
"Z 	c #00A600",
"` 	c #6C6C6C",
" .	c #787878",
"..	c #676767",
"+.	c #2A2A2A",
"@.	c #343434",
"#.	c #2E2E2E",
"$.	c #00007F",
"%.	c #0000D5",
"&.	c #003A28",
"*.	c #D0D0D0",
"=.	c #E0E0E0",
"-.	c #000003",
";.	c #00007E",
">.	c #0000FA",
",.	c #0000F6",
"'.	c #06069E",
").	c #323282",
"!.	c #636382",
"~.	c #333382",
"{.	c #0505A1",
"].	c #0000A7",
"^.	c #000026",
"/.	c #282843",
"(.	c #D9D9D9",
"_.	c #D8D8D8",
":.	c #393952",
"<.	c #000062",
"[.	c #0B0B0B",
"}.	c #444444",
"|.	c #6B6B6B",
"1.	c #8E8E8E",
"2.	c #7A7A7A",
"3.	c #2F2F2F",
"4.	c #282828",
"5.	c #666666",
"6.	c #7D7D7D",
"7.	c #6E6E6E",
"8.	c #252525",
"9.	c #262626",
"0.	c #CBCBCB",
"a.	c #D1D1D1",
"b.	c #C1C1C1",
"c.	c #D5D5D5",
"d.	c #BBBBBB",
"e.	c #1F1F1F",
"f.	c #B0B0B0",
"                                      . + @ # $                 ",
"                                % & * * * = - - - ; >           ",
"                              , * * * * * ' - - - - - )         ",
"                            ! * * * * * ~ { - - - - - - ]       ",
"                          ^ * * * * * * / ( - - - - - - _ :     ",
"                        < [ * * * * * } | - - - - - - 1 2 * 3   ",
"                        4 * * * * * * 5 6 - - - - - - 7 [ * 8   ",
"                        9 * * * * * 0 a - - - - - - b c * * *   ",
"                      d * * * * * e f - - - - - - - g h * * * i ",
"                      j * * * * e k l - - - - - - - m * * * * n ",
"                      o * * * p q r - - - - - - - s t * * * * n ",
"u v v v v v w x x x x y * * z A r - - - - - - - - B C * * * * n ",
"u v v v v v w x x x x D * * E F - - - - - - - - - G H * * * * n ",
"u v v v v v w x x x x I J K L - - - - - - - - - - G H * * * *   ",
"u v v v v v w x x x x x M N ( - - - - - - - - - - b O * * * P   ",
"u v v v v v w x x x x x Q R S - - - - - - - - - - - T U * * %   ",
"u v v v v v w x x x x x x V W - - - - - - - - - - - X Y U Z     ",
"`  . . . . ...+.@.@.@.@.@.#.$.- - - - - - - - - - - - %.&.      ",
"x x x x x x x *.v v v v v =.-.;.>.,.'.).!.!.!.~.{.F r ].        ",
"x x x x x x x *.v v v v v =.x x ^./.(.v v v v v _.:.<.          ",
"x x x x x x x *.v v v v v =.x x x x [.}.|.1.1.2.                ",
"x x x x x x x *.v v v v v =.x x x x x x x                       ",
"x x x x x x x *.v v v v v =.x x x x x x x                       ",
"x x x x x x x *.v v v v v =.x x x x x x x                       ",
"+.3.3.3.3.3.4.5.6.6.6.6.6.7.8.3.3.3.3.3.9.                      ",
"u v v v v v w x x x x x x x 0.v v v v v a.                      ",
"u v v v v v w x x x x x x x 0.v v v v v a.                      ",
"u v v v v v w x x x x x x x 0.v v v v v a.                      ",
"u v v v v v w x x x x x x x 0.v v v v v a.                      ",
"u v v v v v w x x x x x x x 0.v v v v v a.                      ",
"u v v v v v w x x x x x x x 0.v v v v v a.                      ",
"b.c.c.c.c.c.d.e.e.e.e.e.e.e.f.c.c.c.c.c.f.                      "};
