/* XPM */
static char * pgn2web_xpm[] = {
"32 32 174 2",
"  	c None",
". 	c #00B700",
"+ 	c #00CC00",
"@ 	c #008731",
"# 	c #0000E3",
"$ 	c #0000D6",
"% 	c #0000C8",
"& 	c #0000AF",
"* 	c #00CB00",
"= 	c #00FD00",
"- 	c #00FF00",
"; 	c #00FE00",
"> 	c #00AA1E",
", 	c #0000FF",
"' 	c #0000FE",
") 	c #0000F6",
"! 	c #0000BB",
"~ 	c #009900",
"{ 	c #00F400",
"] 	c #00B814",
"^ 	c #0000E6",
"/ 	c #009F00",
"( 	c #009932",
"_ 	c #0000EF",
": 	c #00FA00",
"< 	c #00F900",
"[ 	c #005671",
"} 	c #0000D0",
"| 	c #00E100",
"1 	c #00D307",
"2 	c #0008DB",
"3 	c #0000FD",
"4 	c #000BC2",
"5 	c #00B900",
"6 	c #00A200",
"7 	c #00EE00",
"8 	c #003891",
"9 	c #002F9C",
"0 	c #00F600",
"a 	c #00D200",
"b 	c #00FC00",
"c 	c #00DD03",
"d 	c #003C89",
"e 	c #0000FB",
"f 	c #006369",
"g 	c #00A300",
"h 	c #C1C1C1",
"i 	c #C0C0C0",
"j 	c #AAAAAA",
"k 	c #000000",
"l 	c #001100",
"m 	c #00FB00",
"n 	c #009432",
"o 	c #0017C5",
"p 	c #0000F7",
"q 	c #00A32A",
"r 	c #00C900",
"s 	c #FFFFFF",
"t 	c #FEFEFE",
"u 	c #D5D5D5",
"v 	c #003C00",
"w 	c #00645E",
"x 	c #0000F8",
"y 	c #0006D5",
"z 	c #00EC02",
"A 	c #00EA00",
"B 	c #D4D4D4",
"C 	c #004F00",
"D 	c #008248",
"E 	c #0000FC",
"F 	c #004484",
"G 	c #00F300",
"H 	c #005200",
"I 	c #00F700",
"J 	c #000EC9",
"K 	c #00933A",
"L 	c #004000",
"M 	c #00DD01",
"N 	c #0000F0",
"O 	c #0000EA",
"P 	c #00D607",
"Q 	c #00E800",
"R 	c #001400",
"S 	c #0012C4",
"T 	c #0006CD",
"U 	c #00C400",
"V 	c #FDFDFD",
"W 	c #FCFCFC",
"X 	c #00CA00",
"Y 	c #006B61",
"Z 	c #0008CC",
"` 	c #008500",
" .	c #868686",
"..	c #828282",
"+.	c #6F6F6F",
"@.	c #2D2D2D",
"#.	c #333333",
"$.	c #1A801A",
"%.	c #00D707",
"&.	c #0003E4",
"*.	c #0000EC",
"=.	c #00D408",
"-.	c #00EF00",
";.	c #013701",
">.	c #DFDFDF",
",.	c #C9D3C9",
"'.	c #03E103",
").	c #003D92",
"!.	c #007E4C",
"~.	c #009600",
"{.	c #6DB26D",
"].	c #006767",
"^.	c #0012C2",
"/.	c #00C502",
"(.	c #011E01",
"_.	c #F4F4F4",
":.	c #41B141",
"<.	c #00F800",
"[.	c #004F7D",
"}.	c #0000E2",
"|.	c #000C21",
"1.	c #F2F2F2",
"2.	c #47A248",
"3.	c #000BD0",
"4.	c #0505E9",
"5.	c #4848CB",
"6.	c #9191CE",
"7.	c #B7B7CF",
"8.	c #B8B8D0",
"9.	c #9595D0",
"0.	c #5555CA",
"a.	c #0E0ED1",
"b.	c #0000F9",
"c.	c #0000D1",
"d.	c #010137",
"e.	c #FBFBFB",
"f.	c #8888B8",
"g.	c #3434A3",
"h.	c #D9D9E2",
"i.	c #F1F1F1",
"j.	c #9090BE",
"k.	c #0D0D7C",
"l.	c #010117",
"m.	c #F8F8F8",
"n.	c #393939",
"o.	c #8D8D8D",
"p.	c #C8C8C8",
"q.	c #EAEAEA",
"r.	c #EDEDED",
"s.	c #E6E6E6",
"t.	c #B2B2B2",
"u.	c #6A6A6A",
"v.	c #1E1E1E",
"w.	c #020202",
"x.	c #DBDBDB",
"y.	c #D2D2D2",
"z.	c #D1D1D1",
"A.	c #C3C3C3",
"B.	c #030303",
"C.	c #707070",
"D.	c #6E6E6E",
"E.	c #ECECEC",
"F.	c #010101",
"G.	c #878787",
"H.	c #858585",
"I.	c #FAFAFA",
"J.	c #F9F9F9",
"K.	c #E9E9E9",
"L.	c #838383",
"M.	c #454545",
"N.	c #414141",
"O.	c #3E3E3E",
"P.	c #252525",
"Q.	c #262626",
"                                  . + @ # $ % &                 ",
"                              * = - ; > , ' ' ' ) !             ",
"                          ~ { ; ; ; = ] , ' ' ' ' ' ^           ",
"                        / = ; ; ; ; = ( , ' ' ' ' ' ' _         ",
"                        : ; ; ; ; ; < [ , ' ' ' ' ' ' ' }       ",
"                      | ; ; ; ; ; = 1 2 ' ' ' ' ' ' ' 3 4 5     ",
"                    6 - ; ; ; ; = 7 8 , ' ' ' ' ' ' ' 3 9 0     ",
"                    a ; ; ; ; b c d ' ' ' ' ' ' ' ' ' e f = g   ",
"  h i i i i i j k l m ; ; ; b n o , ' ' ' ' ' ' ' ' ' p q ; r   ",
"  s t t t t t u k v ; ; ; m w x ' ' ' ' ' ' ' ' ' ' 3 y z ; A   ",
"  s t t t t t B k C ; ; ; D e ' ' ' ' ' ' ' ' ' ' ' E F - ; G   ",
"  s t t t t t B k H ; ; I J ' ' ' ' ' ' ' ' ' ' ' ' x K ; ; G   ",
"  s t t t t t B k L ; ; M N ' ' ' ' ' ' ' ' ' ' ' ' O P ; ; Q   ",
"  s t t t t t B k R b ; < S ' ' ' ' ' ' ' ' ' ' ' 3 T 0 ; ; U   ",
"  s V V V V W B k k X ; ; Y ' ' ' ' ' ' ' ' ' ' ' 3 Z I ; b `   ",
"   ...........+.@.#.$.; ; %.&.' ' ' ' ' ' ' ' ' ' ' *.=.; -.;.  ",
"  k k k k k k k >.s ,.'.; : ).' ' ' ' ' ' ' ' ' ' ' e !.b ~.    ",
"  k k k k k k k >.t W {.m b ]., ' ' ' ' ' ' ' ' ' ' 3 ^./.(.    ",
"  k k k k k k k >.t t _.:.<.[., ' 3 3 ' ' ' 3 3 ' ' 3 }.|.      ",
"  k k k k k k k >.t t t 1.2.3.' 4.5.6.7.8.9.0.a.b.e c.d.        ",
"  k k k k k k k >.t t t t e.f.g.h.t t t t t V i.j.k.l.          ",
"  k k k k k k k >.t t t t t m.#.n.o.p.q.r.s.t.u.v.w.            ",
"  k k k k k k k x.m.m.m.m.m._.#.k k k k k k k                   ",
"  y.z.z.z.z.z.A.B.w.w.w.w.w.w.C.z.z.z.z.z.z.D.                  ",
"  s t t t t t E.F.k k k k k k G.t t t t t V H.                  ",
"  s t t t t t E.F.k k k k k k G.t t t t t V H.                  ",
"  s t t t t t E.F.k k k k k k G.t t t t t V H.                  ",
"  s t t t t t E.F.k k k k k k G.t t t t t V H.                  ",
"  s t t t t t E.F.k k k k k k G.t t t t t V H.                  ",
"  V I.I.I.I.J.K.F.k k k k k k G.I.I.I.I.I.J.L.                  ",
"  M.N.N.N.N.N.O.F.F.F.F.F.F.F.P.N.N.N.N.N.N.Q.                  ",
"                                                                "};
